<?xml version="1.0" encoding="utf-8"?>
<!-- Generator: Adobe Illustrator 26.3.1, SVG Export Plug-In . SVG Version: 6.00 Build 0)  -->
<svg version="1.1" id="Layer_1" xmlns="http://www.w3.org/2000/svg" xmlns:xlink="http://www.w3.org/1999/xlink" x="0px" y="0px"
	 viewBox="0 0 98 96" style="enable-background:new 0 0 98 96;" xml:space="preserve">
<style type="text/css">
	.st0{fill:#FFFFFF;}
</style>
<g>
	<path class="st0" d="M63.3,96c-1.1,0-1.8-0.4-2.2-0.7c-0.8-0.6-1.2-1.6-1.2-2.7c0-0.5,0-1.5,0-2.7c0-2.5,0.1-6.2,0.1-10.5
		c0-4.9-1.8-7.3-2.9-8.2l-1.7-1.5l2.2-0.2c10.4-1.2,21-4.8,21-22.8c0-4.8-1.6-8.9-4.7-12.3l-0.4-0.5l0.2-0.6
		c0.5-1.2,1.9-5.6-0.3-11.5c-1.2-0.1-5,0.2-11.9,4.9l-0.4,0.3l-0.4-0.1c-3.7-1-7.8-1.6-11.7-1.6c-4,0-7.9,0.5-11.7,1.6l-0.4,0.1
		l-0.4-0.3c-6.9-4.7-10.7-4.9-11.9-4.9c-2.2,5.9-0.8,10.3-0.3,11.5l0.2,0.6l-0.4,0.5c-3.1,3.4-4.7,7.6-4.7,12.3
		c0,18.3,11.2,21.8,20.9,22.8l2.2,0.2L41,71.2c-1.4,1.2-2.4,3.4-2.7,5.9l-0.1,0.5l-0.5,0.2c-2.3,1.1-10.4,3.9-15.2-4.4
		c0-0.1-2.4-4.2-6.6-4.5c-0.3,0-0.7,0.1-1,0.1c0.2,0.2,0.5,0.5,1.2,1c0.6,0.3,3.6,2.1,5.7,7.5c0.1,0.4,2.7,7.8,15,5.1l1.2-0.3v1.2
		c0,2.6,0,5.1,0.1,6.9c0,0.9,0,1.7,0,2c0,1.1-0.4,2-1.2,2.7c-0.6,0.5-1.6,0.9-3.2,0.6l-0.1,0c-20-6.7-33.4-25.5-33.4-46.7
		C0.2,22.1,22.1,0,49,0c13,0,25.2,5.1,34.4,14.3c9.3,9.3,14.4,21.7,14.3,34.9c0,21.2-13.4,40-33.4,46.7l-0.1,0
		C63.9,96,63.6,96,63.3,96z M59.6,71.2c1.1,1.6,2.3,4.2,2.3,8.2c0,4.3,0,8.1-0.1,10.6c0,1.2,0,2.2,0,2.7c0,0.5,0.2,0.9,0.5,1.1
		c0.4,0.3,1.1,0.3,1.5,0.2c19.1-6.5,32-24.4,32-44.8c0-12.7-4.8-24.6-13.8-33.5C73.3,6.8,61.5,2,49,2C23.2,2,2.1,23.1,2.1,49.2
		c0,20.3,12.9,38.3,32,44.8c0.5,0.1,1.1,0.1,1.5-0.2c0.3-0.2,0.5-0.7,0.5-1.1c0-0.4,0-1.1,0-2c0-1.5,0-3.6-0.1-5.7
		c-13,2.3-16-6.5-16-6.6c-1.9-5-4.8-6.4-4.8-6.4l-0.1-0.1c-1.2-0.8-2.6-2-2.2-3.3c0.4-1.3,2.3-1.5,3.1-1.5c5.4,0.4,8.1,5.2,8.2,5.5
		c3.7,6.3,9.4,4.9,12.2,3.8c0.4-2.3,1.2-3.9,1.9-5c-9.4-1.3-20.8-5.7-20.8-24.5c0-5,1.6-9.4,4.8-13.1c-0.7-2-1.7-6.8,0.7-12.9
		l0.2-0.4l0.4-0.1c0.5-0.1,4.6-1.2,13.6,4.8c3.8-1,7.8-1.5,11.8-1.5c3.9,0,8,0.5,11.8,1.5c9-6,13.2-5,13.6-4.8l0.4,0.1l0.2,0.4
		c2.4,6.1,1.3,10.9,0.7,12.9c3.2,3.6,4.8,8.1,4.8,13.1C80.5,65.3,69.1,69.8,59.6,71.2z"/>
</g>
</svg>
