<?xml version="1.0" encoding="utf-8"?>
<!-- Generator: Adobe Illustrator 26.3.1, SVG Export Plug-In . SVG Version: 6.00 Build 0)  -->
<svg version="1.1" id="Layer_1" xmlns="http://www.w3.org/2000/svg" xmlns:xlink="http://www.w3.org/1999/xlink" x="0px" y="0px"
	 viewBox="0 0 110.4 110.5" style="enable-background:new 0 0 110.4 110.5;" xml:space="preserve">
<style type="text/css">
	.st0{fill:none;stroke:#EEA1E6;stroke-width:1.5;stroke-miterlimit:10;}
	.st1{fill:none;stroke:#6EDCF3;stroke-width:1.5;stroke-miterlimit:10;}
</style>
<path class="st0" d="M82.1,69.7c5.9,15.2,5.2,26.8-0.8,32.5c-3.5,3.3-7.8,4.4-9.7,5.1c-0.2,0.1,0.3-0.2,0.5-0.8
	c4.1-12.2-9.5-26.2-30.3-44.9C13.9,36.5,15.9,14.9,21.4,12.2c3.4-1.7,9.2-0.2,15.8,3.4"/>
<g>
	<path class="st0" d="M34.5,55.2c0-0.3,0-0.7,0-1C27.9,47,22.3,39.3,19.9,31.1c-2.6,7.3-4,15.5-4,24.1c0,30.2,17.6,54.7,39.3,54.7
		C43.8,109.9,34.5,85.4,34.5,55.2z"/>
	<path class="st0" d="M15.9,55.2c0-8.7,1.5-16.8,4-24.1c-1.5-5.3-2.9-11.4-0.4-17.3c2.2-2.2,0,0,0,0c-11.4,10-19,25-19,41.4
		c0,30.2,24.5,54.7,54.7,54.7C33.5,109.9,15.9,85.4,15.9,55.2z"/>
	<path class="st0" d="M72.5,104.3c-5.2,3.6-11.1,5.6-17.3,5.6c5.8,0,11.4-0.9,16.6-2.6v-0.2C72.2,106.2,72.4,105.3,72.5,104.3z"/>
	<path class="st0" d="M70.4,93c-6.2-12.3-23-24.8-35.7-38.6c0,0.3-0.1,0.5-0.1,0.8c0,30.2,9.3,54.7,20.7,54.7
		C61.2,109.9,66.6,103.6,70.4,93z"/>
	<path class="st0" d="M38.3,3.2c0-0.1,0-0.1,0-0.2"/>
	<path class="st0" d="M20.2,13c0,0.1,0,0.2-0.1,0.2"/>
</g>
<path class="st1" d="M75.9,55.2c0,2.8-0.1,5.6-0.2,8.3c6.1,5.8,11.2,10.7,14.3,16.4c2.9-7.6,4.6-15.5,4.6-24.6
	C94.5,25,76.9,0.5,55.2,0.5C66.6,0.5,75.9,25,75.9,55.2z"/>
<path class="st1" d="M38.9,21.6C42.7,8.8,48.6,0.5,55.2,0.5c-6.4,0-12.4,2.1-17.7,5.9C36.4,11.7,37,16.8,38.9,21.6z"/>
<path class="st1" d="M55.2,0.5c-5.9,0-11.6,0.9-16.9,2.7c-0.4,1.1-0.6,2.2-0.8,3.2C42.8,2.7,48.8,0.5,55.2,0.5z"/>
<path class="st1" d="M109.9,55.2c0-30.2-24.5-54.7-54.7-54.7c21.7,0,39.3,24.5,39.3,54.7c0,9.2-1.7,16.9-4.6,24.5
	c2.7,5,3.8,10.8,2,15.8v0.2C103,85.7,109.9,71.3,109.9,55.2z"/>
<path class="st1" d="M38.9,21.6C44.7,37,62.1,50.5,75.7,63.5c0.2-2.7,0.2-5.5,0.2-8.3c0-30.2-9.3-54.7-20.7-54.7
	C48.6,0.5,42.7,8.8,38.9,21.6z"/>
<line class="st1" x1="55.2" y1="0.5" x2="55.2" y2="44.2"/>
<line class="st0" x1="55.2" y1="74.1" x2="55.2" y2="109.9"/>
</svg>
