<?xml version="1.0" encoding="utf-8"?>
<!-- Generator: Adobe Illustrator 26.3.1, SVG Export Plug-In . SVG Version: 6.00 Build 0)  -->
<svg version="1.1" id="Layer_1" xmlns="http://www.w3.org/2000/svg" xmlns:xlink="http://www.w3.org/1999/xlink" x="0px" y="0px"
	 viewBox="0 0 110.4 110.5" style="enable-background:new 0 0 110.4 110.5;" xml:space="preserve">
<style type="text/css">
	.st0{fill:#0F0F1B;}
	.st1{fill:#231F20;}
	.st2{fill:#79CFE8;}
	.st3{fill:#4F61AB;}
	.st4{fill:none;stroke:#000000;stroke-width:0.5;stroke-miterlimit:10;}
	.st5{fill:none;stroke:#231F20;stroke-width:0.5;stroke-miterlimit:10;}
	.st6{fill:none;stroke:#DCA2C9;stroke-width:0.5;stroke-miterlimit:10;}
	.st7{fill:#FFFFFF;stroke:#79CFE8;stroke-width:0.5;stroke-miterlimit:10;}
	.st8{fill:none;stroke:#79CFE8;stroke-width:0.5;stroke-miterlimit:10;}
	.st9{fill:none;stroke:#7ACFE7;stroke-width:0.5;stroke-miterlimit:10;}
	.st10{fill:#79CFE8;stroke:#7ACFE7;stroke-width:0.5;stroke-miterlimit:10;}
	.st11{fill:#FFFFFF;stroke:#231F20;stroke-width:0.5;stroke-miterlimit:10;}
	.st12{clip-path:url(#SVGID_00000111162477034947246260000013427903636261731998_);}
	.st13{fill:none;stroke:#79CFE8;stroke-width:1.5;stroke-miterlimit:10;}
	.st14{fill:#FFFFFF;}
	.st15{fill:#5868AF;}
	.st16{fill:#FFFFFF;stroke:#000000;stroke-miterlimit:10;}
	.st17{fill:none;stroke:#000000;stroke-miterlimit:10;}
	.st18{stroke:#000000;stroke-miterlimit:10;}
	.st19{fill:none;}
	.st20{fill:none;stroke:#FFFFFF;stroke-miterlimit:10;}
	.st21{fill:none;stroke:#EEA1E6;stroke-miterlimit:10;}
	.st22{fill:none;stroke:#6EDCF3;stroke-miterlimit:10;}
	.st23{fill:none;stroke:#EEA1E6;stroke-width:1.5;stroke-miterlimit:10;}
	.st24{fill:none;stroke:#6EDCF3;stroke-width:1.5;stroke-miterlimit:10;}
</style>
<path class="st23" d="M81.3,102.2c-3.5,3.3-7.6,4.5-9.5,5.2c-0.3,0.1,0.2-0.5,0.3-0.9c4.1-12.2-9.5-26.2-30.3-44.9
	C13.9,36.5,15.9,14.9,21.4,12.2c3.4-1.7,9-0.5,15.6,3.1c3.3,9.6,4.7,15.9,15.4,26.2c9.1,9.1,23.3,22.1,29.6,28.4
	C87.9,85.1,87.3,96.5,81.3,102.2z"/>
<g>
	<path class="st23" d="M70.3,92.7c-3.8,10.6-9.1,17.2-15,17.2c6.2,0,12.1-2,17.3-5.6C73.1,100.4,72.2,96.6,70.3,92.7z"/>
	<path class="st23" d="M34.5,55.2c0-0.3,0-0.7,0-1C27.9,47,22.3,39.3,19.9,31.1c-2.6,7.3-4,15.5-4,24.1c0,30.2,17.6,54.7,39.3,54.7
		C43.8,109.9,34.5,85.4,34.5,55.2z"/>
	<path class="st23" d="M15.9,55.2c0-8.7,1.5-16.8,4-24.1c-1.5-5.3-2.8-11.2-0.3-17.1c0.2-0.4,0.2-0.4-0.1-0.2
		c-11.4,10-19,25-19,41.4c0,30.2,24.5,54.7,54.7,54.7C33.5,109.9,15.9,85.4,15.9,55.2z"/>
	<path class="st23" d="M72.5,104.3c-5.2,3.6-11.1,5.6-17.3,5.6c5.8,0,11.4-0.9,16.6-2.6l0-0.2C72.2,106.2,72.4,105.3,72.5,104.3z"/>
	<path class="st23" d="M70.3,92.7c-6.2-12.3-23-24.7-35.7-38.5c0,0.3,0,0.7,0,1c0,30.2,9.3,54.7,20.7,54.7
		C61.2,109.9,66.5,103.3,70.3,92.7z"/>
	<path class="st23" d="M38.3,3.2c0-0.1,0-0.1,0-0.2"/>
	<path class="st23" d="M20.2,13c0,0.1,0,0.2-0.1,0.2"/>
</g>
<path class="st24" d="M75.9,55.2c0,2.8-0.1,5.6-0.2,8.3c6.1,5.8,11.2,10.7,14.3,16.4c2.9-7.6,4.6-15.5,4.6-24.6
	C94.5,25,76.9,0.5,55.2,0.5C66.6,0.5,75.9,25,75.9,55.2z"/>
<path class="st24" d="M38.9,21.6C42.7,8.8,48.6,0.5,55.2,0.5c-6.4,0-12.4,2.1-17.7,5.9C36.4,11.7,37.1,16.7,38.9,21.6z"/>
<path class="st24" d="M55.2,0.5c-5.9,0-11.6,0.9-16.9,2.7c-0.4,1.1-0.6,2.2-0.8,3.2C42.8,2.7,48.8,0.5,55.2,0.5z"/>
<path class="st24" d="M109.9,55.2c0-30.2-24.5-54.7-54.7-54.7c21.7,0,39.3,24.5,39.3,54.7c0,9.2-1.7,17-4.6,24.6
	c2.7,5,3.8,10.7,2,15.7l0,0.2C103,85.7,109.9,71.3,109.9,55.2z"/>
<path class="st24" d="M38.9,21.6C44.7,37,62.1,50.5,75.7,63.5c0.2-2.7,0.2-5.5,0.2-8.3c0-30.2-9.3-54.7-20.7-54.7
	C48.6,0.5,42.7,8.8,38.9,21.6z"/>
<line class="st24" x1="55.2" y1="0.5" x2="55.2" y2="44.2"/>
<line class="st23" x1="55.2" y1="74.1" x2="55.2" y2="109.9"/>
</svg>
