<?xml version="1.0" encoding="utf-8"?>
<!-- Generator: Adobe Illustrator 26.3.1, SVG Export Plug-In . SVG Version: 6.00 Build 0)  -->
<svg version="1.1" id="Layer_1" xmlns="http://www.w3.org/2000/svg" xmlns:xlink="http://www.w3.org/1999/xlink" x="0px" y="0px"
	 viewBox="0 0 40 40" style="enable-background:new 0 0 40 40;" xml:space="preserve">
<style type="text/css">
	.st0{fill:#FFFFFF;}
</style>
<g>
	<path class="st0" d="M36.2,37.8l-6.7,0c-0.8,0-1.4-0.6-1.4-1.4V25c0-3.5-1.5-3.5-2.3-3.5c-1.2,0-2.7,0.4-2.7,3.5v11.4
		c0,0.8-0.6,1.4-1.4,1.4h-6.4c-0.8,0-1.4-0.6-1.4-1.4V14.8c0-0.8,0.6-1.4,1.4-1.4h6.4c0.6,0,1.1,0.4,1.3,0.9
		c1.5-1.1,3.3-1.6,5.2-1.6c2.7,0,5,0.9,6.6,2.5c1.7,1.7,2.6,4.3,2.6,7.4v13.7C37.6,37.2,37,37.8,36.2,37.8z M25.9,20.3
		c2.3,0,3.5,1.6,3.5,4.7v11.4c0,0.1,0.1,0.1,0.1,0.1l6.7,0c0.1,0,0.1,0,0.1-0.1V22.7c0-2.8-0.8-5-2.3-6.6c-1.4-1.4-3.4-2.2-5.7-2.2
		c-1.9,0-3.6,0.6-5,1.8l-1.4,1.2v-2.2c0-0.1,0-0.1-0.1-0.1h-6.4c-0.1,0-0.1,0-0.1,0.1v21.7c0,0.1,0,0.1,0.1,0.1h6.4
		c0.1,0,0.1,0,0.1-0.1V25C21.9,20.9,24.4,20.3,25.9,20.3z"/>
</g>
<g>
	<path class="st0" d="M11.1,37.8H4.4c-0.8,0-1.4-0.6-1.4-1.4V14.8c0-0.8,0.6-1.4,1.4-1.4h6.7c0.8,0,1.4,0.6,1.4,1.4v21.7
		C12.5,37.2,11.9,37.8,11.1,37.8z M4.4,14.6c-0.1,0-0.1,0-0.1,0.1v21.7c0,0.1,0.1,0.1,0.1,0.1h6.7c0.1,0,0.1,0,0.1-0.1V14.8
		c0-0.1,0-0.1-0.1-0.1H4.4z"/>
</g>
<g>
	<path class="st0" d="M7.7,13c-3,0-5.4-2.4-5.4-5.4c0-3,2.4-5.4,5.4-5.4c2.9,0,5.3,2.4,5.3,5.4C13.1,10.6,10.7,13,7.7,13z M7.7,3.5
		c-2.2,0-4.1,1.8-4.1,4.1c0,2.3,1.8,4.1,4.1,4.1c2.2,0,4.1-1.8,4.1-4.1C11.8,5.3,10,3.5,7.7,3.5z"/>
</g>
</svg>
