<?xml version="1.0" encoding="utf-8"?>
<!-- Generator: Adobe Illustrator 26.3.1, SVG Export Plug-In . SVG Version: 6.00 Build 0)  -->
<svg version="1.1" id="Layer_1" xmlns="http://www.w3.org/2000/svg" xmlns:xlink="http://www.w3.org/1999/xlink" x="0px" y="0px"
	 viewBox="0 0 40 40" style="enable-background:new 0 0 40 40;" xml:space="preserve">
<style type="text/css">
	.st0{fill:#FFFFFF;}
</style>
<path id="Mail" class="st0" d="M36.2,5H3.8C1.7,5,0,6.6,0,8.7v22.6C0,33.4,1.7,35,3.8,35h32.5c2.1,0,3.7-1.7,3.7-3.8V8.7
	C40,6.6,38.3,5,36.2,5z M38.7,30.7L26.9,18.9l11.8-7.6V30.7z M3.8,6.2h32.5c1.4,0,2.5,1.1,2.5,2.5v1.1l-17.2,11
	c-0.9,0.6-2.1,0.6-3,0L1.3,9V8.7C1.3,7.3,2.4,6.2,3.8,6.2z M1.3,10.5l12,8.2l-12,12V10.5z M36.2,33.8H3.8c-1,0-1.9-0.6-2.3-1.5
	l12.8-12.9l3.5,2.4c0.7,0.5,1.5,0.7,2.2,0.7c0.7,0,1.5-0.2,2.2-0.6l3.6-2.3l12.7,12.7C38.2,33.2,37.3,33.8,36.2,33.8z"/>
</svg>
